<mxfile host="app.diagrams.net" modified="2022-04-25T02:50:35.596Z" agent="5.0 (Windows NT 10.0; Win64; x64) AppleWebKit/537.36 (KHTML, like Gecko) Chrome/100.0.4896.127 Safari/537.36" etag="nUZMuOvCQdO5X3HHh_W6" version="17.4.6" type="github">
  <diagram name="Page-1" id="c4acf3e9-155e-7222-9cf6-157b1a14988f">
    <mxGraphModel dx="2228" dy="1663" grid="1" gridSize="10" guides="1" tooltips="1" connect="1" arrows="1" fold="1" page="1" pageScale="1" pageWidth="850" pageHeight="1100" background="none" math="0" shadow="0">
      <root>
        <mxCell id="0" />
        <mxCell id="1" parent="0" />
        <mxCell id="2IleTWmGrQDSyHTpT3a_-10" value="USUARIOS" style="swimlane;fontStyle=0;childLayout=stackLayout;horizontal=1;startSize=30;horizontalStack=0;resizeParent=1;resizeParentMax=0;resizeLast=0;collapsible=1;marginBottom=0;" parent="1" vertex="1">
          <mxGeometry x="410" y="60" width="210" height="120" as="geometry" />
        </mxCell>
        <mxCell id="2IleTWmGrQDSyHTpT3a_-11" value="PK IDUSUARIO autonum&#xa;" style="text;strokeColor=none;fillColor=none;align=left;verticalAlign=middle;spacingLeft=4;spacingRight=4;overflow=hidden;points=[[0,0.5],[1,0.5]];portConstraint=eastwest;rotatable=0;fontStyle=1" parent="2IleTWmGrQDSyHTpT3a_-10" vertex="1">
          <mxGeometry y="30" width="210" height="20" as="geometry" />
        </mxCell>
        <mxCell id="2IleTWmGrQDSyHTpT3a_-12" value="&#xa;NOMBREUSUARIO VARCHAR25" style="text;strokeColor=none;fillColor=none;align=left;verticalAlign=middle;spacingLeft=4;spacingRight=4;overflow=hidden;points=[[0,0.5],[1,0.5]];portConstraint=eastwest;rotatable=0;" parent="2IleTWmGrQDSyHTpT3a_-10" vertex="1">
          <mxGeometry y="50" width="210" height="40" as="geometry" />
        </mxCell>
        <mxCell id="2IleTWmGrQDSyHTpT3a_-13" value="CLAVE VARCHAR100" style="text;strokeColor=none;fillColor=none;align=left;verticalAlign=middle;spacingLeft=4;spacingRight=4;overflow=hidden;points=[[0,0.5],[1,0.5]];portConstraint=eastwest;rotatable=0;" parent="2IleTWmGrQDSyHTpT3a_-10" vertex="1">
          <mxGeometry y="90" width="210" height="30" as="geometry" />
        </mxCell>
        <mxCell id="2IleTWmGrQDSyHTpT3a_-14" value="DATOSPERSONALES" style="swimlane;fontStyle=0;childLayout=stackLayout;horizontal=1;startSize=30;horizontalStack=0;resizeParent=1;resizeParentMax=0;resizeLast=0;collapsible=1;marginBottom=0;" parent="1" vertex="1">
          <mxGeometry x="400" y="290" width="230" height="230" as="geometry" />
        </mxCell>
        <mxCell id="2IleTWmGrQDSyHTpT3a_-15" value="PK Y FK  IDDATOSPERS&#xa;" style="text;strokeColor=none;fillColor=none;align=left;verticalAlign=middle;spacingLeft=4;spacingRight=4;overflow=hidden;points=[[0,0.5],[1,0.5]];portConstraint=eastwest;rotatable=0;fontStyle=1" parent="2IleTWmGrQDSyHTpT3a_-14" vertex="1">
          <mxGeometry y="30" width="230" height="20" as="geometry" />
        </mxCell>
        <mxCell id="2IleTWmGrQDSyHTpT3a_-16" value="    APELLIDO VARCHAR 50 NOT NULL" style="text;strokeColor=none;fillColor=none;align=left;verticalAlign=middle;spacingLeft=4;spacingRight=4;overflow=hidden;points=[[0,0.5],[1,0.5]];portConstraint=eastwest;rotatable=0;" parent="2IleTWmGrQDSyHTpT3a_-14" vertex="1">
          <mxGeometry y="50" width="230" height="30" as="geometry" />
        </mxCell>
        <mxCell id="2IleTWmGrQDSyHTpT3a_-18" value="    NOMBRE VARCHAR 100 NOT NULL" style="text;strokeColor=none;fillColor=none;align=left;verticalAlign=middle;spacingLeft=4;spacingRight=4;overflow=hidden;points=[[0,0.5],[1,0.5]];portConstraint=eastwest;rotatable=0;" parent="2IleTWmGrQDSyHTpT3a_-14" vertex="1">
          <mxGeometry y="80" width="230" height="30" as="geometry" />
        </mxCell>
        <mxCell id="2IleTWmGrQDSyHTpT3a_-17" value="    EMAIL VARCHAR 100 NULL" style="text;strokeColor=none;fillColor=none;align=left;verticalAlign=middle;spacingLeft=4;spacingRight=4;overflow=hidden;points=[[0,0.5],[1,0.5]];portConstraint=eastwest;rotatable=0;" parent="2IleTWmGrQDSyHTpT3a_-14" vertex="1">
          <mxGeometry y="110" width="230" height="30" as="geometry" />
        </mxCell>
        <mxCell id="2IleTWmGrQDSyHTpT3a_-19" value="    TELEFONO VARCHAR 15 NULL" style="text;strokeColor=none;fillColor=none;align=left;verticalAlign=middle;spacingLeft=4;spacingRight=4;overflow=hidden;points=[[0,0.5],[1,0.5]];portConstraint=eastwest;rotatable=0;" parent="2IleTWmGrQDSyHTpT3a_-14" vertex="1">
          <mxGeometry y="140" width="230" height="30" as="geometry" />
        </mxCell>
        <mxCell id="2IleTWmGrQDSyHTpT3a_-20" value="    CELULAR VARCHAR 15 NULL" style="text;strokeColor=none;fillColor=none;align=left;verticalAlign=middle;spacingLeft=4;spacingRight=4;overflow=hidden;points=[[0,0.5],[1,0.5]];portConstraint=eastwest;rotatable=0;" parent="2IleTWmGrQDSyHTpT3a_-14" vertex="1">
          <mxGeometry y="170" width="230" height="30" as="geometry" />
        </mxCell>
        <mxCell id="2IleTWmGrQDSyHTpT3a_-21" value="    FECHANAC DATE NULL" style="text;strokeColor=none;fillColor=none;align=left;verticalAlign=middle;spacingLeft=4;spacingRight=4;overflow=hidden;points=[[0,0.5],[1,0.5]];portConstraint=eastwest;rotatable=0;fontStyle=0" parent="2IleTWmGrQDSyHTpT3a_-14" vertex="1">
          <mxGeometry y="200" width="230" height="30" as="geometry" />
        </mxCell>
        <mxCell id="2IleTWmGrQDSyHTpT3a_-25" value="LOCALIDADES" style="swimlane;fontStyle=0;childLayout=stackLayout;horizontal=1;startSize=30;horizontalStack=0;resizeParent=1;resizeParentMax=0;resizeLast=0;collapsible=1;marginBottom=0;" parent="1" vertex="1">
          <mxGeometry x="740" y="20" width="270" height="140" as="geometry" />
        </mxCell>
        <mxCell id="2IleTWmGrQDSyHTpT3a_-26" value="PK Y FK IDLOCALIDAD" style="text;strokeColor=none;fillColor=none;align=left;verticalAlign=middle;spacingLeft=4;spacingRight=4;overflow=hidden;points=[[0,0.5],[1,0.5]];portConstraint=eastwest;rotatable=0;fontStyle=1" parent="2IleTWmGrQDSyHTpT3a_-25" vertex="1">
          <mxGeometry y="30" width="270" height="20" as="geometry" />
        </mxCell>
        <mxCell id="2IleTWmGrQDSyHTpT3a_-29" value="    NOMBRELOCALIDAD VARCHAR 85 NULL" style="text;strokeColor=none;fillColor=none;align=left;verticalAlign=middle;spacingLeft=4;spacingRight=4;overflow=hidden;points=[[0,0.5],[1,0.5]];portConstraint=eastwest;rotatable=0;" parent="2IleTWmGrQDSyHTpT3a_-25" vertex="1">
          <mxGeometry y="50" width="270" height="30" as="geometry" />
        </mxCell>
        <mxCell id="2IleTWmGrQDSyHTpT3a_-27" value="FK  CODIGOPAIS VARCHAR 50 NULL" style="text;strokeColor=none;fillColor=none;align=left;verticalAlign=middle;spacingLeft=4;spacingRight=4;overflow=hidden;points=[[0,0.5],[1,0.5]];portConstraint=eastwest;rotatable=0;fontStyle=1" parent="2IleTWmGrQDSyHTpT3a_-25" vertex="1">
          <mxGeometry y="80" width="270" height="30" as="geometry" />
        </mxCell>
        <mxCell id="2IleTWmGrQDSyHTpT3a_-34" value="    DOMICILIO NULL VARCHAR 250" style="text;strokeColor=none;fillColor=none;align=left;verticalAlign=middle;spacingLeft=4;spacingRight=4;overflow=hidden;points=[[0,0.5],[1,0.5]];portConstraint=eastwest;rotatable=0;" parent="2IleTWmGrQDSyHTpT3a_-25" vertex="1">
          <mxGeometry y="110" width="270" height="30" as="geometry" />
        </mxCell>
        <mxCell id="2IleTWmGrQDSyHTpT3a_-35" value="PAISES" style="swimlane;fontStyle=0;childLayout=stackLayout;horizontal=1;startSize=30;horizontalStack=0;resizeParent=1;resizeParentMax=0;resizeLast=0;collapsible=1;marginBottom=0;" parent="1" vertex="1">
          <mxGeometry x="780" y="330" width="230" height="80" as="geometry" />
        </mxCell>
        <mxCell id="2IleTWmGrQDSyHTpT3a_-36" value="PK  CODIGOPAIS &#xa;" style="text;strokeColor=none;fillColor=none;align=left;verticalAlign=middle;spacingLeft=4;spacingRight=4;overflow=hidden;points=[[0,0.5],[1,0.5]];portConstraint=eastwest;rotatable=0;fontStyle=1" parent="2IleTWmGrQDSyHTpT3a_-35" vertex="1">
          <mxGeometry y="30" width="230" height="20" as="geometry" />
        </mxCell>
        <mxCell id="2IleTWmGrQDSyHTpT3a_-37" value="    NOMBREPAIS VARCHAR 50" style="text;strokeColor=none;fillColor=none;align=left;verticalAlign=middle;spacingLeft=4;spacingRight=4;overflow=hidden;points=[[0,0.5],[1,0.5]];portConstraint=eastwest;rotatable=0;" parent="2IleTWmGrQDSyHTpT3a_-35" vertex="1">
          <mxGeometry y="50" width="230" height="30" as="geometry" />
        </mxCell>
        <mxCell id="2IleTWmGrQDSyHTpT3a_-47" value="ARCHIVOS" style="swimlane;fontStyle=0;childLayout=stackLayout;horizontal=1;startSize=30;horizontalStack=0;resizeParent=1;resizeParentMax=0;resizeLast=0;collapsible=1;marginBottom=0;" parent="1" vertex="1">
          <mxGeometry x="50" y="240" width="230" height="220" as="geometry" />
        </mxCell>
        <mxCell id="2IleTWmGrQDSyHTpT3a_-48" value="PK IDARCHIVOS autonum" style="text;strokeColor=none;fillColor=none;align=left;verticalAlign=middle;spacingLeft=4;spacingRight=4;overflow=hidden;points=[[0,0.5],[1,0.5]];portConstraint=eastwest;rotatable=0;fontStyle=1" parent="2IleTWmGrQDSyHTpT3a_-47" vertex="1">
          <mxGeometry y="30" width="230" height="20" as="geometry" />
        </mxCell>
        <mxCell id="THswuUgWEzuCoGZG5h8U-19" value="FK IDUSUARIO autonum&#xa;" style="text;strokeColor=none;fillColor=none;align=left;verticalAlign=middle;spacingLeft=4;spacingRight=4;overflow=hidden;points=[[0,0.5],[1,0.5]];portConstraint=eastwest;rotatable=0;fontStyle=1" parent="2IleTWmGrQDSyHTpT3a_-47" vertex="1">
          <mxGeometry y="50" width="230" height="20" as="geometry" />
        </mxCell>
        <mxCell id="2IleTWmGrQDSyHTpT3a_-50" value="    NOMBRE VARCHAR 100 NOT NULL" style="text;strokeColor=none;fillColor=none;align=left;verticalAlign=middle;spacingLeft=4;spacingRight=4;overflow=hidden;points=[[0,0.5],[1,0.5]];portConstraint=eastwest;rotatable=0;" parent="2IleTWmGrQDSyHTpT3a_-47" vertex="1">
          <mxGeometry y="70" width="230" height="30" as="geometry" />
        </mxCell>
        <mxCell id="2IleTWmGrQDSyHTpT3a_-51" value="    EXTENSION  VARCHAR 8 NULL" style="text;strokeColor=none;fillColor=none;align=left;verticalAlign=middle;spacingLeft=4;spacingRight=4;overflow=hidden;points=[[0,0.5],[1,0.5]];portConstraint=eastwest;rotatable=0;" parent="2IleTWmGrQDSyHTpT3a_-47" vertex="1">
          <mxGeometry y="100" width="230" height="30" as="geometry" />
        </mxCell>
        <mxCell id="2IleTWmGrQDSyHTpT3a_-49" value="    TAMAÑO INT" style="text;strokeColor=none;fillColor=none;align=left;verticalAlign=middle;spacingLeft=4;spacingRight=4;overflow=hidden;points=[[0,0.5],[1,0.5]];portConstraint=eastwest;rotatable=0;" parent="2IleTWmGrQDSyHTpT3a_-47" vertex="1">
          <mxGeometry y="130" width="230" height="30" as="geometry" />
        </mxCell>
        <mxCell id="2IleTWmGrQDSyHTpT3a_-53" value="    FECHACREACION DATE" style="text;strokeColor=none;fillColor=none;align=left;verticalAlign=middle;spacingLeft=4;spacingRight=4;overflow=hidden;points=[[0,0.5],[1,0.5]];portConstraint=eastwest;rotatable=0;" parent="2IleTWmGrQDSyHTpT3a_-47" vertex="1">
          <mxGeometry y="160" width="230" height="30" as="geometry" />
        </mxCell>
        <mxCell id="2IleTWmGrQDSyHTpT3a_-52" value="    FECHAMODIF DATE" style="text;strokeColor=none;fillColor=none;align=left;verticalAlign=middle;spacingLeft=4;spacingRight=4;overflow=hidden;points=[[0,0.5],[1,0.5]];portConstraint=eastwest;rotatable=0;fontStyle=0" parent="2IleTWmGrQDSyHTpT3a_-47" vertex="1">
          <mxGeometry y="190" width="230" height="30" as="geometry" />
        </mxCell>
        <mxCell id="2IleTWmGrQDSyHTpT3a_-60" style="edgeStyle=orthogonalEdgeStyle;rounded=0;orthogonalLoop=1;jettySize=auto;html=1;" parent="1" source="2IleTWmGrQDSyHTpT3a_-27" target="2IleTWmGrQDSyHTpT3a_-36" edge="1">
          <mxGeometry relative="1" as="geometry">
            <mxPoint x="560" y="390" as="targetPoint" />
          </mxGeometry>
        </mxCell>
        <mxCell id="THswuUgWEzuCoGZG5h8U-20" value="1 a muchos" style="edgeLabel;html=1;align=center;verticalAlign=middle;resizable=0;points=[];" parent="2IleTWmGrQDSyHTpT3a_-60" vertex="1" connectable="0">
          <mxGeometry x="-0.154" y="-2" relative="1" as="geometry">
            <mxPoint as="offset" />
          </mxGeometry>
        </mxCell>
        <mxCell id="THswuUgWEzuCoGZG5h8U-10" value="" style="edgeStyle=entityRelationEdgeStyle;fontSize=12;html=1;endArrow=ERzeroToOne;startArrow=ERmandOne;rounded=0;" parent="1" source="2IleTWmGrQDSyHTpT3a_-15" target="2IleTWmGrQDSyHTpT3a_-11" edge="1">
          <mxGeometry width="100" height="100" relative="1" as="geometry">
            <mxPoint x="289.53999999999974" y="302.17999999999995" as="sourcePoint" />
            <mxPoint x="289.9999999999998" y="90" as="targetPoint" />
          </mxGeometry>
        </mxCell>
        <mxCell id="THswuUgWEzuCoGZG5h8U-14" value="1 A 1" style="edgeLabel;html=1;align=center;verticalAlign=middle;resizable=0;points=[];" parent="THswuUgWEzuCoGZG5h8U-10" vertex="1" connectable="0">
          <mxGeometry x="-0.1897" y="2" relative="1" as="geometry">
            <mxPoint as="offset" />
          </mxGeometry>
        </mxCell>
        <mxCell id="THswuUgWEzuCoGZG5h8U-16" value="" style="edgeStyle=entityRelationEdgeStyle;fontSize=12;html=1;endArrow=ERzeroToOne;startArrow=ERmandOne;rounded=0;" parent="1" source="2IleTWmGrQDSyHTpT3a_-11" target="2IleTWmGrQDSyHTpT3a_-26" edge="1">
          <mxGeometry width="100" height="100" relative="1" as="geometry">
            <mxPoint x="680" y="130" as="sourcePoint" />
            <mxPoint x="559.9999999999998" y="140" as="targetPoint" />
          </mxGeometry>
        </mxCell>
        <mxCell id="THswuUgWEzuCoGZG5h8U-17" value="1 A 1" style="edgeLabel;html=1;align=center;verticalAlign=middle;resizable=0;points=[];" parent="THswuUgWEzuCoGZG5h8U-16" vertex="1" connectable="0">
          <mxGeometry x="-0.1897" y="2" relative="1" as="geometry">
            <mxPoint as="offset" />
          </mxGeometry>
        </mxCell>
        <mxCell id="4L83d-oEXFqkPp0VzkwF-1" value="SUSCRIPCIONES" style="swimlane;fontStyle=0;childLayout=stackLayout;horizontal=1;startSize=30;horizontalStack=0;resizeParent=1;resizeParentMax=0;resizeLast=0;collapsible=1;marginBottom=0;" vertex="1" parent="1">
          <mxGeometry x="-300" y="-90" width="210" height="150" as="geometry" />
        </mxCell>
        <mxCell id="4L83d-oEXFqkPp0VzkwF-2" value="PK y FK IDSUSCRIPCION autonum&#xa;" style="text;strokeColor=none;fillColor=none;align=left;verticalAlign=middle;spacingLeft=4;spacingRight=4;overflow=hidden;points=[[0,0.5],[1,0.5]];portConstraint=eastwest;rotatable=0;fontStyle=1" vertex="1" parent="4L83d-oEXFqkPp0VzkwF-1">
          <mxGeometry y="30" width="210" height="20" as="geometry" />
        </mxCell>
        <mxCell id="4L83d-oEXFqkPp0VzkwF-3" value="TIPODECTA" style="text;strokeColor=none;fillColor=none;align=left;verticalAlign=middle;spacingLeft=4;spacingRight=4;overflow=hidden;points=[[0,0.5],[1,0.5]];portConstraint=eastwest;rotatable=0;" vertex="1" parent="4L83d-oEXFqkPp0VzkwF-1">
          <mxGeometry y="50" width="210" height="40" as="geometry" />
        </mxCell>
        <mxCell id="4L83d-oEXFqkPp0VzkwF-5" value="CUOTAMB" style="text;strokeColor=none;fillColor=none;align=left;verticalAlign=middle;spacingLeft=4;spacingRight=4;overflow=hidden;points=[[0,0.5],[1,0.5]];portConstraint=eastwest;rotatable=0;" vertex="1" parent="4L83d-oEXFqkPp0VzkwF-1">
          <mxGeometry y="90" width="210" height="30" as="geometry" />
        </mxCell>
        <mxCell id="4L83d-oEXFqkPp0VzkwF-4" value="COSTOMENSUAL" style="text;strokeColor=none;fillColor=none;align=left;verticalAlign=middle;spacingLeft=4;spacingRight=4;overflow=hidden;points=[[0,0.5],[1,0.5]];portConstraint=eastwest;rotatable=0;" vertex="1" parent="4L83d-oEXFqkPp0VzkwF-1">
          <mxGeometry y="120" width="210" height="30" as="geometry" />
        </mxCell>
        <mxCell id="4L83d-oEXFqkPp0VzkwF-9" value="" style="edgeStyle=entityRelationEdgeStyle;fontSize=12;html=1;endArrow=ERzeroToMany;startArrow=ERmandOne;rounded=0;" edge="1" parent="1" source="2IleTWmGrQDSyHTpT3a_-11" target="THswuUgWEzuCoGZG5h8U-19">
          <mxGeometry width="100" height="100" relative="1" as="geometry">
            <mxPoint x="390" y="100" as="sourcePoint" />
            <mxPoint x="310" y="231.6" as="targetPoint" />
          </mxGeometry>
        </mxCell>
        <mxCell id="4L83d-oEXFqkPp0VzkwF-10" value="1 a muchos" style="edgeLabel;html=1;align=center;verticalAlign=middle;resizable=0;points=[];" vertex="1" connectable="0" parent="4L83d-oEXFqkPp0VzkwF-9">
          <mxGeometry x="0.0053" y="-2" relative="1" as="geometry">
            <mxPoint as="offset" />
          </mxGeometry>
        </mxCell>
        <mxCell id="4L83d-oEXFqkPp0VzkwF-15" value="PAGOSXSUSCRIPCIONES" style="swimlane;fontStyle=0;childLayout=stackLayout;horizontal=1;startSize=30;horizontalStack=0;resizeParent=1;resizeParentMax=0;resizeLast=0;collapsible=1;marginBottom=0;" vertex="1" parent="1">
          <mxGeometry x="-290" y="190" width="210" height="200" as="geometry" />
        </mxCell>
        <mxCell id="4L83d-oEXFqkPp0VzkwF-16" value="PK IDSUSCRIPCION autonum&#xa;" style="text;strokeColor=none;fillColor=none;align=left;verticalAlign=middle;spacingLeft=4;spacingRight=4;overflow=hidden;points=[[0,0.5],[1,0.5]];portConstraint=eastwest;rotatable=0;fontStyle=1" vertex="1" parent="4L83d-oEXFqkPp0VzkwF-15">
          <mxGeometry y="30" width="210" height="20" as="geometry" />
        </mxCell>
        <mxCell id="4L83d-oEXFqkPp0VzkwF-19" value="FORMADEPAGO" style="text;strokeColor=none;fillColor=none;align=left;verticalAlign=middle;spacingLeft=4;spacingRight=4;overflow=hidden;points=[[0,0.5],[1,0.5]];portConstraint=eastwest;rotatable=0;" vertex="1" parent="4L83d-oEXFqkPp0VzkwF-15">
          <mxGeometry y="50" width="210" height="30" as="geometry" />
        </mxCell>
        <mxCell id="4L83d-oEXFqkPp0VzkwF-20" value="IMPORTEABONADO" style="text;strokeColor=none;fillColor=none;align=left;verticalAlign=middle;spacingLeft=4;spacingRight=4;overflow=hidden;points=[[0,0.5],[1,0.5]];portConstraint=eastwest;rotatable=0;" vertex="1" parent="4L83d-oEXFqkPp0VzkwF-15">
          <mxGeometry y="80" width="210" height="30" as="geometry" />
        </mxCell>
        <mxCell id="4L83d-oEXFqkPp0VzkwF-39" value="ANIO" style="text;strokeColor=none;fillColor=none;align=left;verticalAlign=middle;spacingLeft=4;spacingRight=4;overflow=hidden;points=[[0,0.5],[1,0.5]];portConstraint=eastwest;rotatable=0;" vertex="1" parent="4L83d-oEXFqkPp0VzkwF-15">
          <mxGeometry y="110" width="210" height="30" as="geometry" />
        </mxCell>
        <mxCell id="4L83d-oEXFqkPp0VzkwF-38" value="MES" style="text;strokeColor=none;fillColor=none;align=left;verticalAlign=middle;spacingLeft=4;spacingRight=4;overflow=hidden;points=[[0,0.5],[1,0.5]];portConstraint=eastwest;rotatable=0;" vertex="1" parent="4L83d-oEXFqkPp0VzkwF-15">
          <mxGeometry y="140" width="210" height="30" as="geometry" />
        </mxCell>
        <mxCell id="4L83d-oEXFqkPp0VzkwF-23" value="FECHAPAGO" style="text;strokeColor=none;fillColor=none;align=left;verticalAlign=middle;spacingLeft=4;spacingRight=4;overflow=hidden;points=[[0,0.5],[1,0.5]];portConstraint=eastwest;rotatable=0;" vertex="1" parent="4L83d-oEXFqkPp0VzkwF-15">
          <mxGeometry y="170" width="210" height="30" as="geometry" />
        </mxCell>
        <mxCell id="4L83d-oEXFqkPp0VzkwF-24" value="" style="edgeStyle=entityRelationEdgeStyle;fontSize=12;html=1;endArrow=ERzeroToOne;startArrow=ERmandOne;rounded=0;" edge="1" parent="1" source="4L83d-oEXFqkPp0VzkwF-2" target="4L83d-oEXFqkPp0VzkwF-16">
          <mxGeometry width="100" height="100" relative="1" as="geometry">
            <mxPoint x="180" y="-180" as="sourcePoint" />
            <mxPoint x="300" y="-220" as="targetPoint" />
          </mxGeometry>
        </mxCell>
        <mxCell id="4L83d-oEXFqkPp0VzkwF-25" value="1 A 1" style="edgeLabel;html=1;align=center;verticalAlign=middle;resizable=0;points=[];" vertex="1" connectable="0" parent="4L83d-oEXFqkPp0VzkwF-24">
          <mxGeometry x="-0.1897" y="2" relative="1" as="geometry">
            <mxPoint as="offset" />
          </mxGeometry>
        </mxCell>
        <mxCell id="4L83d-oEXFqkPp0VzkwF-26" value="SUSCRIPCIONESXUSUARIOS" style="swimlane;fontStyle=0;childLayout=stackLayout;horizontal=1;startSize=30;horizontalStack=0;resizeParent=1;resizeParentMax=0;resizeLast=0;collapsible=1;marginBottom=0;" vertex="1" parent="1">
          <mxGeometry x="90" width="210" height="130" as="geometry" />
        </mxCell>
        <mxCell id="4L83d-oEXFqkPp0VzkwF-27" value="PK y FK IDSUCRIPCION autonum&#xa;" style="text;strokeColor=none;fillColor=none;align=left;verticalAlign=middle;spacingLeft=4;spacingRight=4;overflow=hidden;points=[[0,0.5],[1,0.5]];portConstraint=eastwest;rotatable=0;fontStyle=1" vertex="1" parent="4L83d-oEXFqkPp0VzkwF-26">
          <mxGeometry y="30" width="210" height="20" as="geometry" />
        </mxCell>
        <mxCell id="4L83d-oEXFqkPp0VzkwF-33" value="PK y FK IDUSUARIO autonum&#xa;" style="text;strokeColor=none;fillColor=none;align=left;verticalAlign=middle;spacingLeft=4;spacingRight=4;overflow=hidden;points=[[0,0.5],[1,0.5]];portConstraint=eastwest;rotatable=0;fontStyle=1" vertex="1" parent="4L83d-oEXFqkPp0VzkwF-26">
          <mxGeometry y="50" width="210" height="20" as="geometry" />
        </mxCell>
        <mxCell id="4L83d-oEXFqkPp0VzkwF-6" value="FECHAINI" style="text;strokeColor=none;fillColor=none;align=left;verticalAlign=middle;spacingLeft=4;spacingRight=4;overflow=hidden;points=[[0,0.5],[1,0.5]];portConstraint=eastwest;rotatable=0;" vertex="1" parent="4L83d-oEXFqkPp0VzkwF-26">
          <mxGeometry y="70" width="210" height="30" as="geometry" />
        </mxCell>
        <mxCell id="4L83d-oEXFqkPp0VzkwF-7" value="FECHAFIN" style="text;strokeColor=none;fillColor=none;align=left;verticalAlign=middle;spacingLeft=4;spacingRight=4;overflow=hidden;points=[[0,0.5],[1,0.5]];portConstraint=eastwest;rotatable=0;" vertex="1" parent="4L83d-oEXFqkPp0VzkwF-26">
          <mxGeometry y="100" width="210" height="30" as="geometry" />
        </mxCell>
        <mxCell id="4L83d-oEXFqkPp0VzkwF-34" value="" style="edgeStyle=entityRelationEdgeStyle;fontSize=12;html=1;endArrow=ERzeroToMany;startArrow=ERmandOne;rounded=0;exitX=0.15;exitY=0.063;exitDx=0;exitDy=0;exitPerimeter=0;" edge="1" parent="1" source="2IleTWmGrQDSyHTpT3a_-11" target="4L83d-oEXFqkPp0VzkwF-33">
          <mxGeometry width="100" height="100" relative="1" as="geometry">
            <mxPoint x="420" y="110" as="sourcePoint" />
            <mxPoint x="290" y="310" as="targetPoint" />
          </mxGeometry>
        </mxCell>
        <mxCell id="4L83d-oEXFqkPp0VzkwF-35" value="1 a muchos" style="edgeLabel;html=1;align=center;verticalAlign=middle;resizable=0;points=[];" vertex="1" connectable="0" parent="4L83d-oEXFqkPp0VzkwF-34">
          <mxGeometry x="0.0053" y="-2" relative="1" as="geometry">
            <mxPoint as="offset" />
          </mxGeometry>
        </mxCell>
        <mxCell id="4L83d-oEXFqkPp0VzkwF-36" value="" style="edgeStyle=entityRelationEdgeStyle;fontSize=12;html=1;endArrow=ERzeroToMany;startArrow=ERmandOne;rounded=0;" edge="1" parent="1" source="4L83d-oEXFqkPp0VzkwF-2" target="4L83d-oEXFqkPp0VzkwF-27">
          <mxGeometry width="100" height="100" relative="1" as="geometry">
            <mxPoint x="451.50000000000045" y="101.25999999999999" as="sourcePoint" />
            <mxPoint x="310" y="70" as="targetPoint" />
          </mxGeometry>
        </mxCell>
        <mxCell id="4L83d-oEXFqkPp0VzkwF-37" value="1 a muchos" style="edgeLabel;html=1;align=center;verticalAlign=middle;resizable=0;points=[];" vertex="1" connectable="0" parent="4L83d-oEXFqkPp0VzkwF-36">
          <mxGeometry x="0.0053" y="-2" relative="1" as="geometry">
            <mxPoint as="offset" />
          </mxGeometry>
        </mxCell>
      </root>
    </mxGraphModel>
  </diagram>
</mxfile>
